<svg width="629" height="629" viewBox="0 0 629 629" fill="none" xmlns="http://www.w3.org/2000/svg">
<g clip-path="url(#clip0_2_14)">
<path d="M138.648 14.8313L166.579 0H258.353C287.804 0 311.651 3.99305 329.891 11.9792C348.322 19.9652 361.718 30.9936 370.078 45.0643C378.629 58.945 382.904 74.9172 382.904 92.9808C382.904 120.932 372.739 143.179 352.408 159.722C332.266 176.074 306.615 185.867 275.454 189.099L284.574 184.536C325.426 187.768 357.348 199.557 380.339 219.903C403.33 240.058 414.825 264.396 414.825 292.918C414.825 314.024 409.41 333.324 398.58 350.817C387.939 368.121 370.458 382.001 346.137 392.459C322.006 402.727 289.61 407.861 248.948 407.861H166.864L146.628 393.029H243.817C266.619 393.029 286.19 389.512 302.53 382.476C318.871 375.441 331.411 364.603 340.152 349.962C349.082 335.321 353.548 316.496 353.548 293.489C353.548 274.855 349.937 258.407 342.717 244.146C335.497 229.695 324.381 218.476 309.371 210.49C294.36 202.314 275.074 198.226 251.513 198.226H146.343L138.648 183.395H247.523C271.464 183.395 290.56 176.359 304.81 162.289C319.061 148.028 326.186 126.542 326.186 97.8295C326.186 81.0966 322.671 66.5505 315.641 54.1912C308.61 41.6417 297.59 31.9443 282.579 25.0992C267.759 18.2539 248.378 14.8313 224.437 14.8313H138.648ZM82.5 407.861V399.589L133.517 387.61V19.9652L82.5 8.27132V0H192.23V407.861H82.5Z" fill="#D97757"/>
</g>
<g clip-path="url(#clip1_2_14)">
<path d="M268.648 233.831L296.579 219H388.353C417.804 219 441.651 222.993 459.891 230.979C478.322 238.965 491.718 249.994 500.078 264.064C508.629 277.945 512.904 293.917 512.904 311.981C512.904 339.932 502.739 362.179 482.408 378.722C462.266 395.074 436.615 404.867 405.454 408.099L414.574 403.536C455.426 406.768 487.348 418.557 510.339 438.903C533.33 459.058 544.825 483.396 544.825 511.918C544.825 533.024 539.41 552.324 528.58 569.817C517.939 587.121 500.458 601.001 476.137 611.459C452.006 621.727 419.61 626.861 378.948 626.861H296.864L276.628 612.029H373.817C396.619 612.029 416.19 608.512 432.53 601.476C448.871 594.441 461.411 583.603 470.152 568.962C479.082 554.321 483.548 535.496 483.548 512.489C483.548 493.855 479.937 477.407 472.717 463.146C465.497 448.695 454.381 437.476 439.371 429.49C424.36 421.314 405.074 417.226 381.513 417.226H276.343L268.648 402.395H377.523C401.464 402.395 420.56 395.359 434.81 381.289C449.061 367.028 456.186 345.542 456.186 316.829C456.186 300.097 452.671 285.551 445.641 273.191C438.61 260.642 427.59 250.944 412.579 244.099C397.759 237.254 378.378 233.831 354.437 233.831H268.648ZM212.5 626.861V618.589L263.517 606.61V238.965L212.5 227.271V219H322.23V626.861H212.5Z" fill="#D97757"/>
</g>
<defs>
<clipPath id="clip0_2_14">
<rect width="334" height="410" fill="white" transform="translate(82.5)"/>
</clipPath>
<clipPath id="clip1_2_14">
<rect width="334" height="410" fill="white" transform="translate(212.5 219)"/>
</clipPath>
</defs>
</svg>
